<?xml version="1.0" encoding="UTF-8"?>
<svg xmlns="http://www.w3.org/2000/svg" xmlns:xlink="http://www.w3.org/1999/xlink" width="100pt" height="100pt" viewBox="0 0 100 100" version="1.1">
<g id="surface1841521">
<path style=" stroke:none;fill-rule:nonzero;fill:rgb(73.333333%,87.058824%,98.431373%);fill-opacity:1;" d="M 53 2 C 46.820312 2 40.4375 5.585938 37.375 11.875 C 36.40625 13.875 37.25 16.28125 39.25 17.25 C 41.25 18.21875 43.65625 17.375 44.625 15.375 C 46.117188 12.304688 50.34375 10 53 10 C 56.96875 10 62 13.054688 62 19 C 62 24.992188 56.992188 30 51 30 L 4 30 C 3.875 29.992188 3.75 29.992188 3.625 30 C 1.414062 30.101562 -0.289062 31.976562 -0.1875 34.1875 C -0.0859375 36.398438 1.789062 38.101562 4 38 L 51 38 C 61.414062 38 70 29.414062 70 19 C 70 8.546875 61.1875 2 53 2 Z M 3.625 46 C 1.414062 46.101562 -0.289062 47.976562 -0.1875 50.1875 C -0.0859375 52.398438 1.789062 54.101562 4 54 L 76.8125 54 C 76.9375 54.007812 77.0625 54.007812 77.1875 54 C 85.445312 54.195312 92 60.875 92 69.1875 C 92 73.28125 90.25 76.476562 87.625 78.8125 C 85 81.148438 81.460938 82.375 78.8125 82.375 C 74.046875 82.375 69.8125 81.34375 66.625 74.1875 C 66.164062 72.71875 64.898438 71.640625 63.375 71.421875 C 61.84375 71.203125 60.328125 71.882812 59.476562 73.171875 C 58.625 74.453125 58.585938 76.117188 59.375 77.4375 C 63.703125 87.148438 72.046875 90.375 78.8125 90.375 C 83.773438 90.375 88.867188 88.367188 92.9375 84.75 C 97.007812 81.132812 100 75.695312 100 69.1875 C 100 56.65625 89.945312 46.429688 77.5 46.0625 C 77.398438 46.039062 77.289062 46.015625 77.1875 46 C 77.148438 46 77.101562 46 77.0625 46 C 76.976562 46 76.898438 46 76.8125 46 L 4 46 C 3.875 45.992188 3.75 45.992188 3.625 46 Z M 3.625 60 C 1.414062 60.101562 -0.289062 61.976562 -0.1875 64.1875 C -0.0859375 66.398438 1.789062 68.101562 4 68 L 27 68 C 27.125 68.007812 27.25 68.007812 27.375 68 C 33.195312 68.203125 38 73.132812 38 79 C 38 81.9375 36.835938 83.992188 35.0625 85.5625 C 33.289062 87.132812 30.835938 88 29 88 C 26.773438 88 23.929688 87.554688 21 83.625 C 20.226562 82.296875 18.757812 81.53125 17.226562 81.648438 C 15.695312 81.773438 14.367188 82.765625 13.8125 84.195312 C 13.257812 85.625 13.570312 87.25 14.625 88.375 C 19.046875 94.296875 24.945312 96 29 96 C 33.023438 96 37.109375 94.445312 40.375 91.5625 C 43.640625 88.679688 46 84.257812 46 79 C 46 68.820312 37.78125 60.429688 27.6875 60.0625 C 27.601562 60.039062 27.523438 60.015625 27.4375 60 C 27.375 60 27.3125 60 27.25 60 C 27.164062 60 27.085938 60 27 60 L 4 60 C 3.875 59.992188 3.75 59.992188 3.625 60 Z M 3.625 60 "/>
</g>
</svg>
