<?xml version="1.0" encoding="UTF-8"?>
<svg xmlns="http://www.w3.org/2000/svg" xmlns:xlink="http://www.w3.org/1999/xlink" width="150pt" height="150pt" viewBox="0 0 150 150" version="1.1">
<g id="surface1844386">
<path style=" stroke:none;fill-rule:nonzero;fill:rgb(20%,20%,20%);fill-opacity:1;" d="M 79.5 3 C 70.230469 3 60.65625 8.378906 56.0625 17.8125 C 54.609375 20.8125 55.875 24.421875 58.875 25.875 C 61.875 27.328125 65.484375 26.0625 66.9375 23.0625 C 69.175781 18.457031 75.515625 15 79.5 15 C 85.453125 15 93 19.582031 93 28.5 C 93 37.488281 85.488281 45 76.5 45 L 6 45 C 5.8125 44.988281 5.625 44.988281 5.4375 45 C 2.121094 45.152344 -0.433594 47.964844 -0.28125 51.28125 C -0.128906 54.597656 2.683594 57.152344 6 57 L 76.5 57 C 92.121094 57 105 44.121094 105 28.5 C 105 12.820312 91.78125 3 79.5 3 Z M 5.4375 69 C 2.121094 69.152344 -0.433594 71.964844 -0.28125 75.28125 C -0.128906 78.597656 2.683594 81.152344 6 81 L 115.21875 81 C 115.40625 81.011719 115.59375 81.011719 115.78125 81 C 128.167969 81.292969 138 91.3125 138 103.78125 C 138 109.921875 135.375 114.714844 131.4375 118.21875 C 127.5 121.722656 122.191406 123.5625 118.21875 123.5625 C 111.070312 123.5625 104.71875 122.015625 99.9375 111.28125 C 99.246094 109.078125 97.347656 107.460938 95.0625 107.132812 C 92.765625 106.804688 90.492188 107.824219 89.214844 109.757812 C 87.9375 111.679688 87.878906 114.175781 89.0625 116.15625 C 95.554688 130.722656 108.070312 135.5625 118.21875 135.5625 C 125.660156 135.5625 133.300781 132.550781 139.40625 127.125 C 145.511719 121.699219 150 113.542969 150 103.78125 C 150 84.984375 134.917969 69.644531 116.25 69.09375 C 116.097656 69.058594 115.933594 69.023438 115.78125 69 C 115.722656 69 115.652344 69 115.59375 69 C 115.464844 69 115.347656 69 115.21875 69 L 6 69 C 5.8125 68.988281 5.625 68.988281 5.4375 69 Z M 5.4375 90 C 2.121094 90.152344 -0.433594 92.964844 -0.28125 96.28125 C -0.128906 99.597656 2.683594 102.152344 6 102 L 40.5 102 C 40.6875 102.011719 40.875 102.011719 41.0625 102 C 49.792969 102.304688 57 109.699219 57 118.5 C 57 122.90625 55.253906 125.988281 52.59375 128.34375 C 49.933594 130.699219 46.253906 132 43.5 132 C 40.160156 132 35.894531 131.332031 31.5 125.4375 C 30.339844 123.445312 28.136719 122.296875 25.839844 122.472656 C 23.542969 122.660156 21.550781 124.148438 20.71875 126.292969 C 19.886719 128.4375 20.355469 130.875 21.9375 132.5625 C 28.570312 141.445312 37.417969 144 43.5 144 C 49.535156 144 55.664062 141.667969 60.5625 137.34375 C 65.460938 133.019531 69 126.386719 69 118.5 C 69 103.230469 56.671875 90.644531 41.53125 90.09375 C 41.402344 90.058594 41.285156 90.023438 41.15625 90 C 41.0625 90 40.96875 90 40.875 90 C 40.746094 90 40.628906 90 40.5 90 L 6 90 C 5.8125 89.988281 5.625 89.988281 5.4375 90 Z M 5.4375 90 "/>
</g>
</svg>
