<?xml version="1.0" encoding="UTF-8"?>
<svg xmlns="http://www.w3.org/2000/svg" xmlns:xlink="http://www.w3.org/1999/xlink" width="150pt" height="150pt" viewBox="0 0 150 150" version="1.1">
<g id="surface21622678">
<path style=" stroke:none;fill-rule:nonzero;fill:rgb(80%,80%,80%);fill-opacity:1;" d="M 87 25.59375 C 71.355469 25.59375 58.113281 34.957031 51.75 48.1875 C 48.363281 45.855469 44.4375 44.15625 40.03125 44.15625 C 28.851562 44.15625 19.933594 53.003906 19.3125 64.03125 C 8.132812 68.0625 0 78.492188 0 91.03125 C 0 107.015625 12.984375 120 28.96875 120 L 123.28125 120 C 138 120 150 108 150 93.28125 C 150 79.628906 139.523438 68.777344 126.28125 67.21875 C 126.328125 66.492188 126.46875 65.8125 126.46875 65.0625 C 126.46875 43.3125 108.75 25.59375 87 25.59375 Z M 87 31.59375 C 105.515625 31.59375 120.46875 46.558594 120.46875 65.0625 C 120.46875 66.433594 120.363281 67.78125 120.1875 69.1875 L 119.71875 72.5625 L 123.28125 72.5625 C 134.753906 72.5625 144 81.808594 144 93.28125 C 144 104.753906 134.753906 114 123.28125 114 L 28.96875 114 C 16.21875 114 6 103.769531 6 91.03125 C 6 80.425781 13.148438 71.496094 22.875 68.8125 L 25.125 68.25 L 25.03125 65.8125 C 25.019531 65.390625 25.03125 65.179688 25.03125 65.15625 C 25.03125 56.824219 31.699219 50.15625 40.03125 50.15625 C 44.203125 50.15625 48 51.832031 50.71875 54.5625 L 54 57.9375 L 55.59375 53.53125 C 60.316406 40.78125 72.574219 31.59375 87 31.59375 Z M 87 31.59375 "/>
</g>
</svg>
