<svg fill="#000000" xmlns="http://www.w3.org/2000/svg" viewBox="0 0 50 50" width="50px" height="50px"><path d="M 16.90625 3.96875 C 16.863281 3.976563 16.820313 3.988281 16.78125 4 C 16.316406 4.105469 15.988281 4.523438 16 5 L 16 10 C 15.996094 10.359375 16.183594 10.695313 16.496094 10.878906 C 16.808594 11.058594 17.191406 11.058594 17.503906 10.878906 C 17.816406 10.695313 18.003906 10.359375 18 10 L 18 5 C 18.011719 4.710938 17.894531 4.433594 17.6875 4.238281 C 17.476563 4.039063 17.191406 3.941406 16.90625 3.96875 Z M 5.59375 8.65625 C 5.550781 8.664063 5.507813 8.675781 5.46875 8.6875 C 5.09375 8.753906 4.792969 9.027344 4.6875 9.390625 C 4.582031 9.757813 4.691406 10.148438 4.96875 10.40625 L 8.5 13.9375 C 8.898438 14.335938 9.539063 14.335938 9.9375 13.9375 C 10.335938 13.539063 10.335938 12.898438 9.9375 12.5 L 6.40625 8.96875 C 6.199219 8.746094 5.898438 8.632813 5.59375 8.65625 Z M 28.21875 8.65625 C 28.175781 8.664063 28.132813 8.675781 28.09375 8.6875 C 27.902344 8.730469 27.730469 8.828125 27.59375 8.96875 L 24.0625 12.5 C 23.664063 12.898438 23.664063 13.539063 24.0625 13.9375 C 24.460938 14.335938 25.101563 14.335938 25.5 13.9375 L 29.03125 10.40625 C 29.375 10.117188 29.484375 9.628906 29.292969 9.222656 C 29.101563 8.8125 28.664063 8.582031 28.21875 8.65625 Z M 16.90625 13 C 16.875 13.007813 16.84375 13.019531 16.8125 13.03125 C 16.75 13.035156 16.6875 13.046875 16.625 13.0625 C 16.613281 13.074219 16.605469 13.082031 16.59375 13.09375 C 12.390625 13.320313 9 16.746094 9 21 C 9 23.964844 10.617188 26.558594 13.03125 27.9375 C 13.339844 28.164063 13.75 28.195313 14.089844 28.019531 C 14.429688 27.839844 14.636719 27.484375 14.625 27.101563 C 14.613281 26.714844 14.382813 26.375 14.03125 26.21875 C 12.222656 25.183594 11 23.234375 11 21 C 11 17.707031 13.652344 15.035156 16.9375 15 C 16.957031 15 16.980469 15 17 15 C 17.03125 15 17.0625 15 17.09375 15 C 18.542969 15.023438 19.847656 15.558594 20.875 16.4375 C 21.296875 16.800781 21.933594 16.75 22.296875 16.328125 C 22.660156 15.90625 22.609375 15.269531 22.1875 14.90625 C 20.90625 13.8125 19.25 13.203125 17.46875 13.09375 C 17.4375 13.082031 17.40625 13.070313 17.375 13.0625 C 17.273438 13.023438 17.167969 13.003906 17.0625 13 C 17.042969 13 17.019531 13 17 13 C 16.96875 13 16.9375 13 16.90625 13 Z M 29 16 C 23.488281 16 19 20.488281 19 26 C 19 26.40625 19.074219 26.792969 19.125 27.1875 C 15.703125 27.640625 13 30.457031 13 34 C 13 37.855469 16.144531 41 20 41 L 41 41 C 45.957031 41 50 36.957031 50 32 C 50 27.042969 45.957031 23 41 23 C 40.125 23 39.332031 23.265625 38.53125 23.5 C 37.402344 19.214844 33.632813 16 29 16 Z M 29 18 C 33.015625 18 36.316406 20.941406 36.90625 24.78125 L 37.09375 26.0625 L 38.28125 25.5625 C 39.117188 25.207031 40.03125 25 41 25 C 44.878906 25 48 28.121094 48 32 C 48 35.878906 44.878906 39 41 39 L 20 39 C 17.226563 39 15 36.773438 15 34 C 15 31.226563 17.226563 29 20 29 C 20.003906 29 20.058594 28.996094 20.1875 29 L 21.5 29.0625 L 21.21875 27.78125 C 21.085938 27.199219 21 26.609375 21 26 C 21 21.570313 24.570313 18 29 18 Z M 0.71875 20 C 0.167969 20.078125 -0.21875 20.589844 -0.140625 21.140625 C -0.0625 21.691406 0.449219 22.078125 1 22 L 6 22 C 6.359375 22.003906 6.695313 21.816406 6.878906 21.503906 C 7.058594 21.191406 7.058594 20.808594 6.878906 20.496094 C 6.695313 20.183594 6.359375 19.996094 6 20 L 1 20 C 0.96875 20 0.9375 20 0.90625 20 C 0.875 20 0.84375 20 0.8125 20 C 0.78125 20 0.75 20 0.71875 20 Z M 9.125 27.75 C 9.082031 27.757813 9.039063 27.769531 9 27.78125 C 8.808594 27.824219 8.636719 27.921875 8.5 28.0625 L 4.96875 31.59375 C 4.570313 31.992188 4.570313 32.632813 4.96875 33.03125 C 5.367188 33.429688 6.007813 33.429688 6.40625 33.03125 L 9.9375 29.46875 C 10.25 29.171875 10.339844 28.707031 10.15625 28.316406 C 9.96875 27.921875 9.554688 27.695313 9.125 27.75 Z"/></svg>