<?xml version="1.0" encoding="UTF-8"?>
<svg xmlns="http://www.w3.org/2000/svg" xmlns:xlink="http://www.w3.org/1999/xlink" width="16pt" height="16pt" viewBox="0 0 16 16" version="1.1">
<g id="surface22321259">
<path style=" stroke:none;fill-rule:nonzero;fill:rgb(69.411765%,72.941176%,77.647059%);fill-opacity:1;" d="M 15 2 L 16 2 L 16 15 L 15 15 Z M 15 2 "/>
<path style=" stroke:none;fill-rule:nonzero;fill:rgb(78.039216%,26.27451%,26.27451%);fill-opacity:1;" d="M 15 2 L 16 2 L 16 7 L 15 7 Z M 15 2 "/>
<path style=" stroke:none;fill-rule:nonzero;fill:rgb(78.039216%,26.27451%,26.27451%);fill-opacity:1;" d="M 13 2 L 16 2 L 16 3 L 13 3 Z M 13 2 "/>
<path style=" stroke:none;fill-rule:nonzero;fill:rgb(69.411765%,72.941176%,77.647059%);fill-opacity:1;" d="M 13 10 L 16 10 L 16 11 L 13 11 Z M 13 10 "/>
<path style=" stroke:none;fill-rule:nonzero;fill:rgb(78.039216%,26.27451%,26.27451%);fill-opacity:1;" d="M 14 4 L 16 4 L 16 5 L 14 5 Z M 13 6 L 16 6 L 16 7 L 13 7 Z M 13 6 "/>
<path style=" stroke:none;fill-rule:nonzero;fill:rgb(69.411765%,72.941176%,77.647059%);fill-opacity:1;" d="M 14 8 L 16 8 L 16 9 L 14 9 Z M 14 12 L 16 12 L 16 13 L 14 13 Z M 13 14 L 16 14 L 16 15 L 13 15 Z M 13 14 "/>
<path style=" stroke:none;fill-rule:nonzero;fill:rgb(76.078431%,90.980392%,100%);fill-opacity:1;" d="M 5.5 15.5 C 2.742188 15.5 0.5 13.332031 0.5 10.667969 C 0.5 7.519531 4.269531 2.398438 5.5 0.804688 C 6.734375 2.386719 10.5 7.476562 10.5 10.667969 C 10.5 13.332031 8.257812 15.5 5.5 15.5 Z M 5.5 15.5 "/>
<path style=" stroke:none;fill-rule:nonzero;fill:rgb(69.411765%,72.941176%,77.647059%);fill-opacity:1;" d="M 5.503906 1.621094 C 7.226562 3.898438 10 8.105469 10 10.667969 C 10 13.054688 7.980469 15 5.5 15 C 3.019531 15 1 13.054688 1 10.667969 C 1 8.144531 3.777344 3.914062 5.503906 1.621094 M 5.5 0 C 5.5 0 0 6.703125 0 10.667969 C 0 13.613281 2.460938 16 5.5 16 C 8.539062 16 11 13.613281 11 10.667969 C 11 6.644531 5.5 0 5.5 0 Z M 5.5 0 "/>
<path style=" stroke:none;fill-rule:nonzero;fill:rgb(54.509804%,71.764706%,94.117647%);fill-opacity:1;" d="M 5.5 15.5 C 2.742188 15.5 0.5 13.332031 0.5 10.667969 C 0.5 9.636719 0.917969 8.277344 1.746094 6.621094 C 2.144531 6.542969 2.5625 6.5 2.929688 6.5 C 4.148438 6.5 4.75 7.101562 5.148438 7.496094 C 5.449219 7.796875 6.335938 8.5 8.070312 8.5 C 8.785156 8.5 9.449219 8.40625 9.972656 8.238281 C 10.324219 9.183594 10.5 10 10.5 10.667969 C 10.5 13.332031 8.257812 15.5 5.5 15.5 Z M 5.5 15.5 "/>
<path style=" stroke:none;fill-rule:nonzero;fill:rgb(30.588235%,47.843137%,70.980392%);fill-opacity:1;" d="M 2.929688 7 C 3.941406 7 4.414062 7.472656 4.792969 7.851562 C 5.140625 8.195312 6.148438 9 8.070312 9 C 8.636719 9 9.175781 8.945312 9.652344 8.839844 C 9.882812 9.546875 10 10.15625 10 10.667969 C 10 13.054688 7.980469 15 5.5 15 C 3.019531 15 1 13.054688 1 10.667969 C 1 9.773438 1.371094 8.535156 2.082031 7.070312 C 2.371094 7.023438 2.664062 7 2.929688 7 M 2.929688 6 C 2.394531 6 1.84375 6.082031 1.410156 6.183594 C 0.605469 7.75 0 9.355469 0 10.667969 C 0 13.613281 2.460938 16 5.5 16 C 8.539062 16 11 13.613281 11 10.667969 C 11 9.742188 10.699219 8.675781 10.253906 7.582031 C 9.800781 7.828125 9.007812 8 8.070312 8 C 6.648438 8 5.835938 7.476562 5.5 7.144531 C 5.066406 6.710938 4.351562 6 2.929688 6 Z M 2.929688 6 "/>
</g>
</svg>
