<?xml version="1.0" encoding="UTF-8"?>
<svg xmlns="http://www.w3.org/2000/svg" xmlns:xlink="http://www.w3.org/1999/xlink" width="80pt" height="80pt" viewBox="0 0 80 80" version="1.1">
<g id="surface1836179">
<path style=" stroke:none;fill-rule:nonzero;fill:rgb(69.411765%,72.941176%,77.647059%);fill-opacity:1;" d="M 75 10 L 80 10 L 80 75 L 75 75 Z M 75 10 "/>
<path style=" stroke:none;fill-rule:nonzero;fill:rgb(78.039216%,26.27451%,26.27451%);fill-opacity:1;" d="M 75 10 L 80 10 L 80 35 L 75 35 Z M 75 10 "/>
<path style=" stroke:none;fill-rule:nonzero;fill:rgb(78.039216%,26.27451%,26.27451%);fill-opacity:1;" d="M 65 10 L 80 10 L 80 15 L 65 15 Z M 65 10 "/>
<path style=" stroke:none;fill-rule:nonzero;fill:rgb(69.411765%,72.941176%,77.647059%);fill-opacity:1;" d="M 65 50 L 80 50 L 80 55 L 65 55 Z M 65 50 "/>
<path style=" stroke:none;fill-rule:nonzero;fill:rgb(78.039216%,26.27451%,26.27451%);fill-opacity:1;" d="M 70 20 L 80 20 L 80 25 L 70 25 Z M 65 30 L 80 30 L 80 35 L 65 35 Z M 65 30 "/>
<path style=" stroke:none;fill-rule:nonzero;fill:rgb(69.411765%,72.941176%,77.647059%);fill-opacity:1;" d="M 70 40 L 80 40 L 80 45 L 70 45 Z M 70 60 L 80 60 L 80 65 L 70 65 Z M 65 70 L 80 70 L 80 75 L 65 75 Z M 65 70 "/>
<path style=" stroke:none;fill-rule:nonzero;fill:rgb(76.078431%,90.980392%,100%);fill-opacity:1;" d="M 27.5 77.5 C 13.714844 77.5 2.5 66.660156 2.5 53.335938 C 2.5 37.605469 21.34375 11.984375 27.503906 4.023438 C 33.679688 11.941406 52.5 37.386719 52.5 53.335938 C 52.5 66.660156 41.285156 77.5 27.5 77.5 Z M 27.5 77.5 "/>
<path style=" stroke:none;fill-rule:nonzero;fill:rgb(69.411765%,72.941176%,77.647059%);fill-opacity:1;" d="M 27.515625 8.101562 C 36.128906 19.488281 50 40.523438 50 53.335938 C 50 65.28125 39.90625 75 27.5 75 C 15.09375 75 5 65.28125 5 53.335938 C 5 40.714844 18.894531 19.566406 27.515625 8.101562 M 27.5 0 C 27.5 0 0 33.515625 0 53.335938 C 0 68.058594 12.308594 80 27.5 80 C 42.691406 80 55 68.058594 55 53.335938 C 55 33.214844 27.5 0 27.5 0 Z M 27.5 0 "/>
<path style=" stroke:none;fill-rule:nonzero;fill:rgb(54.509804%,71.764706%,94.117647%);fill-opacity:1;" d="M 27.5 77.5 C 13.714844 77.5 2.5 66.660156 2.5 53.335938 C 2.5 48.183594 4.59375 41.386719 8.734375 33.109375 C 10.71875 32.714844 12.816406 32.5 14.644531 32.5 C 20.75 32.5 23.75 35.5 25.734375 37.480469 C 27.238281 38.988281 31.683594 42.5 40.355469 42.5 C 43.933594 42.5 47.25 42.035156 49.859375 41.199219 C 51.613281 45.925781 52.5 50 52.5 53.335938 C 52.5 66.660156 41.285156 77.5 27.5 77.5 Z M 27.5 77.5 "/>
<path style=" stroke:none;fill-rule:nonzero;fill:rgb(30.588235%,47.843137%,70.980392%);fill-opacity:1;" d="M 14.644531 35 C 19.714844 35 22.074219 37.355469 23.964844 39.25 C 25.695312 40.980469 30.75 45 40.355469 45 C 43.183594 45 45.886719 44.71875 48.261719 44.199219 C 49.414062 47.730469 50 50.789062 50 53.335938 C 50 65.28125 39.90625 75 27.5 75 C 15.09375 75 5 65.28125 5 53.335938 C 5 48.871094 6.863281 42.683594 10.414062 35.351562 C 11.863281 35.125 13.328125 35 14.644531 35 M 14.644531 30 C 11.976562 30 9.210938 30.40625 7.046875 30.914062 C 3.019531 38.75 0 46.785156 0 53.335938 C 0 68.058594 12.308594 80 27.5 80 C 42.691406 80 55 68.058594 55 53.335938 C 55 48.703125 53.503906 43.371094 51.261719 37.914062 C 49.003906 39.148438 45.039062 40 40.355469 40 C 33.246094 40 29.175781 37.390625 27.5 35.714844 C 25.339844 33.554688 21.753906 30 14.644531 30 Z M 14.644531 30 "/>
</g>
</svg>
