<?xml version="1.0" encoding="UTF-8"?>
<svg xmlns="http://www.w3.org/2000/svg" xmlns:xlink="http://www.w3.org/1999/xlink" width="64pt" height="64pt" viewBox="0 0 64 64" version="1.1">
<g id="surface1806030">
<path style=" stroke:none;fill-rule:nonzero;fill:rgb(100%,100%,100%);fill-opacity:1;" d="M 31.789062 24 L 33 26.300781 C 33.28125 26.816406 33.703125 27.238281 34.21875 27.519531 L 36.519531 28.78125 L 34.269531 30 C 33.730469 30.289062 33.289062 30.730469 33 31.269531 L 31.738281 33.570312 L 30.480469 31.269531 C 30.21875 30.742188 29.808594 30.300781 29.300781 30 L 27 28.789062 L 29.300781 27.53125 C 29.816406 27.25 30.238281 26.824219 30.519531 26.308594 Z M 16.789062 11 L 18.789062 14.75 C 19.25 15.59375 19.945312 16.289062 20.789062 16.75 L 24.539062 18.75 L 20.789062 20.75 C 19.945312 21.210938 19.25 21.90625 18.789062 22.75 L 16.789062 26.5 L 14.789062 22.75 C 14.328125 21.90625 13.636719 21.210938 12.789062 20.75 L 9 18.789062 L 12.75 16.789062 C 13.59375 16.328125 14.289062 15.636719 14.75 14.789062 Z M 16.789062 11 "/>
<path style=" stroke:none;fill-rule:nonzero;fill:rgb(100%,100%,100%);fill-opacity:1;" d="M 24.570312 18.75 L 20.820312 20.75 C 19.96875 21.203125 19.273438 21.898438 18.820312 22.75 L 17 26.148438 L 16.789062 26.53125 L 14.789062 22.78125 C 14.332031 21.933594 13.636719 21.238281 12.789062 20.78125 L 9 18.75 L 12.75 16.75 C 13.59375 16.289062 14.289062 15.59375 14.75 14.75 L 16.75 11 L 16.960938 11.378906 L 18.800781 14.75 C 19.257812 15.597656 19.953125 16.292969 20.800781 16.75 Z M 24.570312 18.75 "/>
<path style=" stroke:none;fill-rule:nonzero;fill:rgb(98.039216%,93.72549%,87.058824%);fill-opacity:1;" d="M 17 11.339844 L 17 26.148438 L 16.789062 26.53125 L 14.789062 22.78125 C 14.332031 21.933594 13.636719 21.238281 12.789062 20.78125 L 9 18.75 L 12.75 16.75 C 13.59375 16.289062 14.289062 15.59375 14.75 14.75 L 16.75 11 Z M 32 26 L 32 32 L 29 30 L 29 28 L 30 26 Z M 32 26 "/>
<path style=" stroke:none;fill-rule:nonzero;fill:rgb(100%,100%,100%);fill-opacity:1;" d="M 58.910156 33.238281 C 57.96875 44.996094 49.761719 54.902344 38.382812 58.011719 C 27.007812 61.121094 14.902344 56.769531 8.109375 47.128906 C 7.863281 46.777344 7.867188 46.308594 8.121094 45.960938 C 8.375 45.617188 8.820312 45.46875 9.230469 45.601562 C 19.65625 49.042969 31.132812 46.070312 38.582031 38.003906 C 46.027344 29.933594 48.074219 18.257812 43.808594 8.140625 C 43.644531 7.742188 43.753906 7.28125 44.082031 7 C 44.410156 6.714844 44.878906 6.675781 45.25 6.898438 C 54.464844 12.347656 59.765625 22.570312 58.910156 33.238281 Z M 58.910156 33.238281 "/>
<path style=" stroke:none;fill-rule:nonzero;fill:rgb(100%,100%,100%);fill-opacity:1;" d="M 58.910156 33.238281 C 58.214844 41.929688 53.511719 49.796875 46.1875 54.527344 C 38.863281 59.253906 29.753906 60.300781 21.550781 57.359375 C 20.847656 57.117188 20.285156 56.570312 20.023438 55.875 C 19.761719 55.175781 19.820312 54.398438 20.191406 53.75 C 20.796875 52.710938 22.058594 52.253906 23.191406 52.660156 C 25.695312 53.554688 28.339844 54.007812 31 54 C 31.46875 54 31.941406 54 32.410156 54 C 39.917969 53.546875 46.726562 49.449219 50.644531 43.03125 C 54.566406 36.613281 55.101562 28.6875 52.078125 21.800781 C 51.554688 20.558594 52.117188 19.121094 53.351562 18.570312 C 53.949219 18.292969 54.636719 18.265625 55.257812 18.496094 C 55.875 18.726562 56.378906 19.199219 56.648438 19.800781 C 58.496094 24.027344 59.273438 28.640625 58.910156 33.238281 Z M 58.910156 33.238281 "/>
<path style=" stroke:none;fill-rule:nonzero;fill:rgb(55.294118%,42.352941%,62.352941%);fill-opacity:1;" d="M 30 51 C 29.449219 51 29 51.449219 29 52 L 29 54 C 29 54.550781 29.449219 55 30 55 C 30.550781 55 31 54.550781 31 54 L 31 52 C 31 51.449219 30.550781 51 30 51 Z M 36 51.078125 C 35.84375 50.566406 35.304688 50.265625 34.785156 50.40625 C 34.261719 50.546875 33.949219 51.074219 34.070312 51.601562 L 34.589844 53.53125 C 34.738281 54.066406 35.289062 54.382812 35.824219 54.234375 C 36.359375 54.089844 36.675781 53.535156 36.53125 53 Z M 40.621094 48.890625 C 40.332031 48.4375 39.738281 48.292969 39.277344 48.5625 C 38.8125 48.828125 38.640625 49.414062 38.890625 49.890625 L 39.890625 51.621094 C 40.175781 52.070312 40.769531 52.21875 41.234375 51.949219 C 41.699219 51.679688 41.867188 51.09375 41.621094 50.621094 Z M 25.210938 50.371094 C 24.675781 50.230469 24.132812 50.546875 23.988281 51.078125 L 23.46875 53 C 23.363281 53.347656 23.453125 53.730469 23.710938 53.992188 C 23.964844 54.253906 24.34375 54.355469 24.695312 54.257812 C 25.046875 54.160156 25.316406 53.875 25.398438 53.519531 L 25.921875 51.589844 C 26.058594 51.058594 25.742188 50.511719 25.210938 50.371094 Z M 25.210938 50.371094 "/>
<path style=" stroke:none;fill-rule:nonzero;fill:rgb(55.294118%,42.352941%,62.352941%);fill-opacity:1;" d="M 45.761719 6 C 45.019531 5.558594 44.078125 5.640625 43.425781 6.207031 C 42.773438 6.773438 42.554688 7.695312 42.890625 8.488281 C 44.433594 12.125 45.152344 16.054688 45 20 C 44.445312 34.125 33.125 45.445312 19 46 C 15.800781 46.121094 12.609375 45.664062 9.570312 44.660156 C 8.75 44.382812 7.847656 44.664062 7.328125 45.355469 C 6.8125 46.046875 6.796875 46.992188 7.289062 47.699219 C 12.707031 55.433594 21.558594 60.027344 31 60 C 31.585938 60 32.175781 59.984375 32.769531 59.949219 C 45.515625 59.199219 56.269531 50.199219 59.257812 37.789062 C 62.246094 25.375 56.765625 12.46875 45.761719 6 Z M 57.921875 33.160156 C 57.015625 44.503906 49.097656 54.0625 38.121094 57.0625 C 27.144531 60.0625 15.464844 55.859375 8.921875 46.550781 C 17.578125 49.410156 27.074219 48.035156 34.5625 42.832031 C 42.050781 37.632812 46.660156 29.210938 47 20.101562 C 47.164062 15.871094 46.390625 11.65625 44.738281 7.761719 C 53.644531 12.992188 58.769531 22.863281 57.921875 33.160156 Z M 57.921875 33.160156 "/>
<path style=" stroke:none;fill-rule:nonzero;fill:rgb(55.294118%,42.352941%,62.352941%);fill-opacity:1;" d="M 52.328125 25.570312 C 52.441406 26.027344 52.859375 26.34375 53.328125 26.328125 L 53.570312 26.328125 C 54.105469 26.195312 54.433594 25.65625 54.300781 25.121094 C 54.101562 24.308594 53.855469 23.507812 53.570312 22.71875 C 53.378906 22.199219 52.804688 21.933594 52.285156 22.125 C 51.765625 22.316406 51.5 22.890625 51.691406 23.410156 C 51.941406 24.117188 52.15625 24.839844 52.328125 25.570312 Z M 52.921875 29.679688 C 53.085938 33.511719 52.199219 37.316406 50.359375 40.679688 C 50.082031 41.164062 50.25 41.777344 50.734375 42.054688 C 51.21875 42.332031 51.832031 42.164062 52.109375 41.679688 C 54.117188 38.007812 55.085938 33.859375 54.910156 29.679688 C 54.886719 29.128906 54.421875 28.699219 53.871094 28.71875 C 53.316406 28.742188 52.886719 29.207031 52.910156 29.761719 Z M 8.519531 19.621094 L 12.269531 21.621094 C 12.941406 21.988281 13.492188 22.539062 13.859375 23.210938 L 15.859375 26.960938 C 16.035156 27.277344 16.371094 27.476562 16.734375 27.476562 C 17.097656 27.476562 17.433594 27.277344 17.609375 26.960938 L 19.609375 23.210938 C 19.976562 22.539062 20.527344 21.988281 21.199219 21.621094 L 24.949219 19.621094 C 25.269531 19.445312 25.464844 19.109375 25.464844 18.746094 C 25.464844 18.382812 25.269531 18.046875 24.949219 17.871094 L 21.199219 15.871094 C 20.527344 15.503906 19.976562 14.949219 19.609375 14.28125 L 17.609375 10.53125 C 17.433594 10.210938 17.097656 10.015625 16.734375 10.015625 C 16.371094 10.015625 16.035156 10.210938 15.859375 10.53125 L 13.859375 14.28125 C 13.492188 14.949219 12.941406 15.503906 12.269531 15.871094 L 8.519531 17.871094 C 8.203125 18.046875 8.003906 18.382812 8.003906 18.746094 C 8.003906 19.109375 8.203125 19.445312 8.519531 19.621094 Z M 13.230469 17.621094 C 14.234375 17.066406 15.0625 16.238281 15.609375 15.230469 L 16.789062 13 L 18 15.191406 C 18.550781 16.199219 19.378906 17.027344 20.390625 17.578125 L 22.53125 18.75 L 20.390625 19.921875 C 19.382812 20.46875 18.550781 21.292969 18 22.300781 L 16.828125 24.441406 L 15.609375 22.300781 C 15.058594 21.296875 14.234375 20.46875 13.230469 19.921875 L 11.089844 18.75 Z M 26.519531 29.660156 L 28.820312 30.921875 C 29.167969 31.109375 29.457031 31.394531 29.648438 31.738281 L 30.910156 34.039062 C 31.085938 34.359375 31.421875 34.554688 31.785156 34.554688 C 32.148438 34.554688 32.484375 34.359375 32.660156 34.039062 L 33.921875 31.730469 C 34.109375 31.382812 34.394531 31.097656 34.738281 30.910156 L 37.039062 29.648438 C 37.359375 29.472656 37.554688 29.140625 37.554688 28.773438 C 37.554688 28.410156 37.359375 28.074219 37.039062 27.898438 L 34.738281 26.640625 C 34.394531 26.449219 34.109375 26.164062 33.921875 25.820312 L 32.660156 23.519531 C 32.484375 23.203125 32.148438 23.003906 31.785156 23.003906 C 31.421875 23.003906 31.085938 23.203125 30.910156 23.519531 L 29.648438 25.820312 C 29.460938 26.164062 29.175781 26.449219 28.828125 26.640625 L 26.53125 27.898438 C 26.210938 28.074219 26.015625 28.410156 26.015625 28.773438 C 26.015625 29.140625 26.210938 29.472656 26.53125 29.648438 Z M 29.78125 28.398438 C 30.464844 28.027344 31.027344 27.464844 31.398438 26.78125 L 31.78125 26.078125 L 32.160156 26.78125 C 32.535156 27.464844 33.09375 28.027344 33.78125 28.398438 L 34.480469 28.78125 L 33.78125 29.160156 C 33.09375 29.535156 32.535156 30.09375 32.160156 30.78125 L 31.78125 31.480469 L 31.398438 30.78125 C 31.027344 30.097656 30.464844 29.535156 29.78125 29.160156 L 29.078125 28.78125 Z M 29.78125 28.398438 "/>
</g>
</svg>
