<svg xmlns="http://www.w3.org/2000/svg" viewBox="0 0 64 64" width="64px" height="64px"><path fill="#ffeb9b" d="M18 11A11 11 0 1 0 18 33A11 11 0 1 0 18 11Z"/><path fill="#c2cde7" d="M52.7,34a19.13,19.13,0,0,0-37.08-9.29,15.3,15.3,0,0,0,3,30.31H52.13a10.51,10.51,0,0,0,.57-21Z"/><path fill="#d6dff2" d="M18.79,21.59a2.51,2.51,0,0,0,3.72-.21,15,15,0,0,1,23,0,2.51,2.51,0,0,0,3.72.21h0a2.52,2.52,0,0,0,.12-3.41,20,20,0,0,0-30.68,0,2.52,2.52,0,0,0,.12,3.41Z"/><path fill="#acb7d0" d="M7 50L62 50 56 55 14 55 7 50z"/><path fill="#8d6c9f" d="M14 48a1 1 0 0 0-1 1v2a1 1 0 0 0 2 0V49A1 1 0 0 0 14 48zM19 48a1 1 0 0 0-1 1v2a1 1 0 0 0 2 0V49A1 1 0 0 0 19 48zM24 48a1 1 0 0 0-1 1v2a1 1 0 0 0 2 0V49A1 1 0 0 0 24 48zM29 48a1 1 0 0 0-1 1v2a1 1 0 0 0 2 0V49A1 1 0 0 0 29 48zM39 48a1 1 0 0 0-1 1v2a1 1 0 0 0 2 0V49A1 1 0 0 0 39 48zM34 48a1 1 0 0 0-1 1v2a1 1 0 0 0 2 0V49A1 1 0 0 0 34 48zM44 48a1 1 0 0 0-1 1v2a1 1 0 0 0 2 0V49A1 1 0 0 0 44 48zM18 8a1 1 0 0 0 1-1V5a1 1 0 0 0-2 0V7A1 1 0 0 0 18 8zM4 22a1 1 0 0 0-1-1H1a1 1 0 0 0 0 2H3A1 1 0 0 0 4 22zM11.45 8.47a1 1 0 1 0 1.85-.75l-.75-1.85a1 1 0 0 0-1.85.75zM2.61 29.29l1.85-.75a1 1 0 1 0-.75-1.85l-1.85.75a1 1 0 1 0 .75 1.85zM6.86 11.9A1 1 0 0 0 8.3 10.52L6.91 9.08a1 1 0 1 0-1.44 1.39zM2.06 16l1.83.81a1 1 0 0 0 .41.09A1 1 0 0 0 4.7 15l-1.83-.81A1 1 0 0 0 2.06 16zM23.69 9.21a1 1 0 0 0 .41.09A1 1 0 0 0 25 8.7l.81-1.83A1 1 0 0 0 24 6.06l-.81 1.83A1 1 0 0 0 23.69 9.21zM49 48a1 1 0 0 0-1 1v2a1 1 0 0 0 2 0V49A1 1 0 0 0 49 48zM54 48a1 1 0 0 0-1 1v2a1 1 0 0 0 2 0V49A1 1 0 0 0 54 48zM43.87 19.69a1 1 0 0 0-.15-1.41 15.56 15.56 0 0 0-2.46-1.63 1 1 0 0 0-.94 1.76 13.64 13.64 0 0 1 2.14 1.42 1 1 0 0 0 1.41-.15zM37.24 15.19a15.72 15.72 0 0 0-10.67 1.53 1 1 0 0 0 1 1.76 13.71 13.71 0 0 1 9.29-1.33 1 1 0 1 0 .42-2z"/><path fill="#8d6c9f" d="M55.09,32.42l-.09,0c-.34-.09-.69-.14-1-.2l-.09,0A18.5,18.5,0,0,0,54,30,20,20,0,0,0,24.91,12.2,11.86,11.86,0,0,0,18,10,12,12,0,0,0,7.54,27.88,16,16,0,0,0,18,56H52a12,12,0,0,0,3.09-23.58ZM8,22A10,10,0,0,1,18,12a9.89,9.89,0,0,1,5,1.33,20.13,20.13,0,0,0-7.58,9.4,1,1,0,0,0-.1.16c-.18.48-.33,1-.48,1.45a16,16,0,0,0-5.65,2.33A9.94,9.94,0,0,1,8,22ZM60,50V49a1,1,0,0,0-2,0v2a1,1,0,0,0,.33.73A10,10,0,0,1,52,54H18a13.91,13.91,0,0,1-8.09-2.59A1,1,0,0,0,10,51V49a1,1,0,0,0-2,0v.78A14,14,0,0,1,9.25,29.07a.7.7,0,0,0,.38-.29,13.94,13.94,0,0,1,4.67-2.26A20.1,20.1,0,0,0,14,30a1,1,0,0,0,2,0,18,18,0,0,1,.57-4.48l0-.07a18.09,18.09,0,0,1,8.64-11.17l.15-.09A18,18,0,0,1,52,30a17,17,0,0,1-.14,2,12,12,0,0,0-2.57.29,1,1,0,1,0,.45,1.95,10.09,10.09,0,0,1,3.07-.21c.27,0,.54.05.81.09l.1,0A10,10,0,0,1,60,50Z"/></svg>