<?xml version="1.0" encoding="UTF-8"?>
<svg xmlns="http://www.w3.org/2000/svg" xmlns:xlink="http://www.w3.org/1999/xlink" width="80pt" height="80pt" viewBox="0 0 80 80" version="1.1">
<g id="surface1839633">
<path style=" stroke:none;fill-rule:nonzero;fill:rgb(80%,80%,80%);fill-opacity:1;" d="M 41 71 L 39 71 L 39 2 L 41 2 C 41 2 41 70.898438 41 71 Z M 53 71 C 53 74.898438 49.898438 78 46 78 C 42.101562 78 39 74.898438 39 71 L 41 71 C 41 73.699219 43.199219 76 46 76 C 48.800781 76 51 73.800781 51 71 Z M 53 71 "/>
<path style=" stroke:none;fill-rule:nonzero;fill:rgb(54.509804%,72.156863%,94.117647%);fill-opacity:1;" d="M 54 43.300781 C 52.398438 42.199219 46.398438 38.199219 40.199219 38.199219 C 33.898438 38.199219 27.800781 42.199219 26.199219 43.300781 C 25.101562 42.101562 21 38.199219 14.800781 38.199219 C 9.199219 38.199219 4.5 41.398438 2.699219 42.898438 C 3.199219 23.300781 19.699219 7.5 39.800781 7.398438 L 40.300781 7.398438 C 60.398438 7.5 76.898438 23.398438 77.5 42.898438 C 75.601562 41.398438 71 38.199219 65.398438 38.199219 C 59.300781 38.101562 55.101562 42.101562 54 43.300781 Z M 54 43.300781 "/>
<path style=" stroke:none;fill-rule:nonzero;fill:rgb(30.588235%,47.843137%,70.980392%);fill-opacity:1;" d="M 40.300781 7.898438 C 50.101562 8 59.300781 11.699219 66.199219 18.5 C 72.699219 24.800781 76.398438 33 77 41.898438 C 74.699219 40.300781 70.5 37.800781 65.5 37.699219 L 65.398438 37.699219 C 59.5 37.699219 55.5 41.101562 53.898438 42.699219 C 51.898438 41.300781 46.101562 37.800781 40.101562 37.699219 L 40 37.699219 C 34 37.699219 28.199219 41.199219 26.199219 42.699219 C 24.699219 41.199219 20.601562 37.699219 14.699219 37.699219 C 9.699219 37.699219 5.398438 40.199219 3.101562 41.898438 C 4.300781 23 20.300781 8 39.800781 7.898438 L 40.300781 7.898438 M 40.300781 6.898438 L 39.800781 6.898438 C 18.898438 7 2.101562 23.5 2.101562 43.898438 C 2.101562 43.898438 7.800781 38.601562 14.800781 38.601562 C 21.800781 38.601562 26.101562 43.898438 26.101562 43.898438 C 26.5 43.601562 33.300781 38.601562 40.101562 38.601562 L 40.199219 38.601562 C 47.199219 38.601562 54.101562 43.898438 54.101562 43.898438 C 54.398438 43.601562 58.601562 38.601562 65.398438 38.601562 L 65.5 38.601562 C 72.5 38.601562 78.101562 43.898438 78.101562 43.898438 L 78.101562 43.699219 C 77.898438 23.398438 61.101562 7 40.300781 6.898438 Z M 40.300781 6.898438 "/>
<path style=" stroke:none;fill-rule:nonzero;fill:rgb(30.588235%,47.843137%,70.980392%);fill-opacity:1;" d="M 26 43.5 C 25.699219 43.5 25.5 43.300781 25.5 43 C 25.5 41.898438 24.898438 15.5 39.199219 7.101562 C 39.398438 7 39.800781 7 39.898438 7.300781 C 40 7.5 40 7.800781 39.699219 8 C 25.898438 16.101562 26.5 42.800781 26.5 43 C 26.5 43.300781 26.300781 43.5 26 43.5 Z M 54.101562 43.5 C 53.800781 43.5 53.601562 43.300781 53.601562 43 C 53.601562 42.699219 54.101562 16.101562 40.300781 7.898438 C 40 7.800781 40 7.5 40.101562 7.199219 C 40.199219 7 40.5 6.898438 40.800781 7 C 55.101562 15.398438 54.601562 41.800781 54.601562 43 C 54.601562 43.300781 54.300781 43.5 54.101562 43.5 Z M 54.101562 43.5 "/>
</g>
</svg>
